/* XPM */
static char *result[] = {
/* columns rows colors chars-per-pixel */
"32 32 169 2 ",
"   c #000000",
".  c #0C0405",
"X  c #020509",
"o  c #0B0709",
"O  c #05090B",
"+  c #0B0B0A",
"@  c #140506",
"#  c #190304",
"$  c #170D06",
"%  c #140609",
"&  c #1B0609",
"*  c #130C0B",
"=  c #1D0A0B",
"-  c #1D1008",
";  c #181715",
":  c #181812",
">  c #240505",
",  c #2C0205",
"<  c #2B060B",
"1  c #270E0D",
"2  c #280908",
"3  c #340305",
"4  c #3B0304",
"5  c #3B0807",
"6  c #360509",
"7  c #3E0309",
"8  c #310C08",
"9  c #3C090D",
"0  c #221B13",
"q  c #251E1A",
"w  c #39171A",
"e  c #272616",
"r  c #3E2F19",
"t  c #3F361D",
"y  c #3B3322",
"u  c #430204",
"i  c #4B0205",
"p  c #43050A",
"a  c #49060B",
"s  c #440C0C",
"d  c #4A0A0A",
"f  c #510206",
"g  c #530309",
"h  c #590209",
"j  c #510A0E",
"k  c #5C0A0B",
"l  c #49110D",
"z  c #4B0D13",
"x  c #460F18",
"c  c #580810",
"v  c #4C1717",
"b  c #571013",
"n  c #591518",
"m  c #63050D",
"M  c #6D060A",
"N  c #630B0D",
"B  c #6B0B0C",
"V  c #770606",
"C  c #730509",
"Z  c #720A0D",
"A  c #7B0D0E",
"S  c #6D100F",
"D  c #7A110E",
"F  c #630B12",
"G  c #6A0A12",
"H  c #7D0B14",
"J  c #691213",
"K  c #6C161C",
"L  c #6C1B1A",
"P  c #741216",
"I  c #7A1513",
"U  c #7B1A1A",
"Y  c #442A19",
"T  c #552319",
"R  c #44321C",
"E  c #4C381E",
"W  c #7B261F",
"Q  c #6E3E1E",
"!  c #781A23",
"~  c #592525",
"^  c #752424",
"/  c #7D2225",
"(  c #7B2924",
")  c #7E3531",
"_  c #684E1E",
"`  c #4F4120",
"'  c #584A2F",
"]  c #63582D",
"[  c #685C3B",
"{  c #7D5D39",
"}  c #6E6443",
"|  c #88070B",
" . c #830D11",
".. c #841A1A",
"X. c #921615",
"o. c #9B1A17",
"O. c #AB1F1C",
"+. c #8C2319",
"@. c #9A221D",
"#. c #892224",
"$. c #852C2B",
"%. c #932426",
"&. c #992B26",
"*. c #932828",
"=. c #9D2F33",
"-. c #853331",
";. c #AA3426",
":. c #A0312C",
">. c #AA322C",
",. c #B1372A",
"<. c #B53A2C",
"1. c #A82E33",
"2. c #AB3732",
"3. c #AC3E35",
"4. c #CC3936",
"5. c #9A412F",
"6. c #884639",
"7. c #B74329",
"8. c #B94437",
"9. c #B34639",
"0. c #AF593B",
"q. c #996C29",
"w. c #9F6E3D",
"e. c #89703D",
"r. c #B17C2D",
"t. c #A96C38",
"y. c #B57A38",
"u. c #C74538",
"i. c #C8553F",
"p. c #D76237",
"a. c #E7793D",
"s. c #834742",
"d. c #8A4840",
"f. c #8F4A48",
"g. c #9B4142",
"h. c #895A5E",
"j. c #9C5651",
"k. c #A64944",
"l. c #BC4D43",
"z. c #B35642",
"x. c #AD5955",
"c. c #986158",
"v. c #AB6A54",
"b. c #B77D6C",
"n. c #C14F43",
"m. c #D25D4A",
"M. c #C75850",
"N. c #CE624B",
"B. c #D16448",
"V. c #CD6B55",
"C. c #E06B53",
"Z. c #D17568",
"A. c #9B803C",
"S. c #B0853E",
"D. c #C48E36",
"F. c #8B825D",
"G. c #BB8542",
"H. c #BC9D5E",
"J. c #A78367",
"K. c #A3837C",
"L. c #BDA062",
"P. c #DC947F",
"I. c #DFB663",
"U. c #CB978B",
"Y. c #DB998C",
"T. c #DAAE94",
"R. c #E7A595",
"E. c #CDBBAD",
"W. c #E5D1CE",
/* pixels */
"                                            + [ y :             ",
"                                          + F.L.{ 0             ",
"                                          F.P.$                 ",
"                                        : I.$   X               ",
"                                        ' D.    X               ",
"                                        [ r.    X               ",
"                                        e.q.    X               ",
"                                        A._   o * * o           ",
"                                      ; H.Q v 1.1.%.K .         ",
"                                    : J.a.C.u.4.1...U x         ",
"                                    } a.P.R.N.M.>.%.P G %       ",
"                                  e y.p.W.U.9.l.3.%.K B <       ",
"                                  ] S.7.Z.,.>.! ^ P F F 6       ",
"                                  t G.+.O.o.3.^ ) K g h 6       ",
"                                  r y.l M H #.#.! i a f <       ",
"                = W 2.1.! *       Y y.2 7 m h h i i i i @       ",
"              8 u.V.z.&.X...@ X   Y t.- # a i a u u 7 @         ",
"            % <.Y.T.0.I G Z j X X R w.$   = < , , #             ",
"            8 C.E.J.0...G M F % X E t.- X O X X X X             ",
"            z <.b.v.5.I M M F = X E q.- X + + X                 ",
"            9 O.@.&.D C M M F * X ` q.+ X X X X X               ",
"            #  .| | V V C Z d * X R t.6.T ~ w +                 ",
"              < N N N k c d 8 . y v.9.=.*./ K n *               ",
"              o ( m.B.i.7.L > q 6.8.k.j.*.P J b x .             ",
"              1 <.m.N.8.;...5 Y 7.x.K.h.f.I N d a %             ",
"            . v <.n.9.>.o.D d T ;.k.c.s.d.#.k 4 7 &             ",
"            . c +.:.&.o.X.M i l U  .$.-.g.! p > 4 >             ",
"              6 S Z A A A f u 8 d i g F k 4 > > p %             ",
"              @ i i i i u 4 4 2 5 5 3 3 3 > > 6 s               ",
"                < 4 4 3 3 4 > . = p 3 3 , , 7 p .               ",
"                  % 3 > # .   X X @ 3 7 7 6 #                   ",
"                      X   X X                                   "
};
