/* XPM */
static char *result[] = {
/* columns rows colors chars-per-pixel */
"32 32 7 1 ",
"  c #181B2E",
". c #626262",
"X c #E49229",
"o c #0E6388",
"O c gray53",
"+ c white",
"@ c None",
/* pixels */
"@@@@@@@@@@@@@@@@@@@@@@@@@@@@@@@@",
"@@@@@@@@@@@@@@@@@@@@@@@@@@@@@@@@",
"@@@@@@@@@@@@@@@@@@@@@@@@@@@@@@@@",
"@@@@@@@@@@@@@@@@@@@@@@@@@@@@@@@@",
"@@@@@@@@@@@@@@@@@@@@@@@@@@@@@@@@",
"@@@@@@@@@@@@@@@@@@@@@@@@@@@@@@@@",
"@@@@@@@@@@@@+++++++++@@@@@@@@@@@",
"@@@@@@@@@@@++       ++@@@@@@@@@@",
"@@@@@@@@@@@+  OOOOO  +@@@@@@@@@@",
"@@@@@@@+++++ OO   OO +@@@@@@@@@@",
"@@@@@@++     O +++ O ++@@@@@@@@@",
"@@@@@@+    . O ++  O  +++@@@@@@@",
"@@@@@@+ . ...o +++ OX   +@@@@@@@",
"@@@@@@+ . ....O   OOXXX +@@@@@@@",
"@@@@@@+ . ....OOOOOO    +@@@@@@@",
"@@@@@@+ . .....OOOOO ++++@@@@@@@",
"@@@@@@+    .....OOOO +@@@@@@@@@@",
"@@@@@@++ . .....ooOO +@@@@@@@@@@",
"@@@@@@@+   .....oooo +@@@@@@@@@@",
"@@@@@+++  OO.....ooo +@@@@@@@@@@",
"@@@@++   OOO.....Ooo +@@@@@@@@@@",
"@@+++  OOOOO.....OOO +@@@@@@@@@@",
"+++   OOOOOOO...OOO  +@@@@@@@@@@",
"+   OOOOOOOOOOOOOOO ++@@@@@@@@@@",
"+ OOOOOOOOOOOOOOOO  +@@@@@@@@@@@",
"+    OOOOOOOOOOO   ++@@@@@@@@@@@",
"++++     . .     +++@@@@@@@@@@@@",
"@@@+++++ X X +++++@@@@@@@@@@@@@@",
"@@@@@@+  X     +@@@@@@@@@@@@@@@@",
"@@@@@@+ XXXX X +@@@@@@@@@@@@@@@@",
"@@@@@@+        +@@@@@@@@@@@@@@@@",
"@@@@@@++++++++++@@@@@@@@@@@@@@@@"
};
