/* XPM */
static char *result[] = {
/* columns rows colors chars-per-pixel */
"32 32 7 1 ",
"  c #181B2E",
". c #626262",
"X c #E49229",
"o c #0E6388",
"O c gray53",
"+ c white",
"@ c None",
/* pixels */
"@@@@@@@@@@@@@@@@@@@@@@@@@@@@@@@@",
"@@@@@@@@@@@@@@@@@@@@@@@@@@@@@@@@",
"@@@@@@@@@@@@@@@@@@@@@@@@@@@@@@@@",
"@@@@@@@@@@@@@@@@@@@@@@@@@@@@@@@@",
"@@@@@@@@@@@@@@@@@@@@@@@@@@@@@@@@",
"@@@@@@@@@@@@@@@@@@@@@@@@@@@@@@@@",
"@@@@@@@@@@@@@@@@@@@@@@@@@@@@@@@@",
"@@@@@@@@@@@@@@@@@@@@@@@@@@@@@@@@",
"@@@@@@@@@@@@@@@@@@@@@@@@@@@@@@@@",
"@@@@@@@@@@@@@@@@@@@@@@@@@@@@@@@@",
"@@@@@@@@@@@@@@@@@@@@@@@@@@@@@@@@",
"@@@@@@@@@@@@@@@@@@@@@@@@@@@@@@@@",
"@@@@@@@@@@@@@@@@@@@@@@@@@@@@@@@@",
"@@@@@@@@@@@@@@@@@@@@@@@@@@@@@@@@",
"@@@@@@@@@@@@@@@@@@@@@@@@@@@@@@@@",
"@@@@@@@@@@@@+++++++++++@@@@@@@@@",
"@@@@@@@@@@+++         +++++++++@",
"@@@@@@@@+++   .....oo         ++",
"@@@@@@@++   ........ooooooOOO  +",
"@@@@@+++  ..........oooOO   OO +",
"@@@@++   ...........ooOO +++ O +",
"@@+++  ............ooOOO +++ O +",
"+++   ............oooOOO + + O +",
"+   O........OOOOoooOOOOO   OO +",
"+ OOOO....OOOOOOOoooOOOOOOOOO  +",
"+    OOOOOOOOOOO        XX    ++",
"++++     . .     ++++++ X  ++++@",
"@@@+++++ X X +++++@@@@+ X ++@@@@",
"@@@@@@+  X     +@@@@@@+   +@@@@@",
"@@@@@@+ XXXX X +@@@@@@+++++@@@@@",
"@@@@@@+        +@@@@@@@@@@@@@@@@",
"@@@@@@++++++++++@@@@@@@@@@@@@@@@"
};
