/* XPM */
static char *d5f82ef3819644bdf5d3a24133c2e898RsN5TKkEaRg4FIvF[] = {
/* columns rows colors chars-per-pixel */
"32 32 7 1 ",
"  c None",
". c #181B2E",
"X c #626262",
"o c #E49229",
"O c #0E6388",
"+ c gray53",
"@ c white",
/* pixels */
"                                ",
"                                ",
"            @@@@@@@@@           ",
"           @@.......@@          ",
"           @..+++++..@          ",
"           @.++...++.@          ",
"           @.+.@@@.+.@@         ",
"           @.+.@@..+..@@@       ",
"           @.O.@@@.+o...@       ",
"           @.O+...++ooo.@       ",
"           @.O++++++....@       ",
"           @.OO+++++.@@@@       ",
"          @@.OOO++++.@          ",
"        @@@..OOOOO++.@          ",
"       @@...XXXXOOOO.@          ",
"     @@@..XXXXXXXOOO.@          ",
"    @@...XXXXXXXX+OO.@          ",
"  @@@..XXXXXXXXXX+++.@          ",
"@@@...XXXXXXXXXX+++..@          ",
"@...+XXXXXXXX++++++.@@          ",
"@.++++XXXX++++++++..@           ",
"@....+++++++++++...@@           ",
"@@@@.....X.......@@@            ",
"   @@@@@..o..@@@@@              ",
"     @.....o...@                ",
"     @.oo.oooo.@                ",
"     @.........@                ",
"     @@@@@@@@@@@                ",
"                                ",
"                                ",
"                                ",
"                                "
};
