/* XPM */
static char *result[] = {
/* columns rows colors chars-per-pixel */
"32 32 7 1 ",
"  c #181B2E",
". c #626262",
"X c #E49229",
"o c #0E6388",
"O c gray53",
"+ c white",
"@ c None",
/* pixels */
"@@@@@@@@@@@@@@@@@@@@@@@@@@@@@@@@",
"@@@@@@@@@@@@@@@@@@@@@@@@@@@@@@@@",
"@@@@@@@@@@@@@@@@@@@@@@@@@@@@@@@@",
"@@@@@@@@@@@@@@@@@@@@@@@@@@@@@@@@",
"@@@@@@@@@@@@@@@@@@@@@@@@@@@@@@@@",
"@@@@@@@@@@@@@@@@@@@@@@@@@@@@@@@@",
"@@@@@@@@@@@@@@@@@@@@@@@@@@@@@@@@",
"@@@@@@@@@@@@@@@@@@@@@@@@@@@@@@@@",
"@@@@@@@@@@@@@@@@@@@@@@@@@@@@@@@@",
"@@@@@@@@@@@@@@@@@@@@@@@@@@@@@@@@",
"@@@@@@@@@@@@@@@@@@@@@@@@@@@@@@@@",
"@@@@@@@@@@@@@@@@@@@@@@@@@@@@@@@@",
"@@@@@@@@@@@@@@@@@@@@@@@@@@@@@@@@",
"@@@@@@@@@@@@@@@@@@@@@@@@@@@@@@@@",
"@@@@@@@@@@@@@@@@@@@@@@@@@@@@@@@@",
"@@@@@@@@@@@@@@@@@@@@@@@@@@@@@@@@",
"@@@@@@@@@@@@@@@@++++++++++@@@@@@",
"@@@@@+++++@@@@@@+        +@@@@@@",
"@@@@@+   +@@@@@@+ X XXXX +@@@@@@",
"@@@@++ X +@@@@+++     X  +@@@@@@",
"@++++  X ++++++++++ X X ++@@@@@@",
"++    XX            . X +@@@@@@@",
"+  OOOOOOOOOoooOOOOOO . ++@@@@@@",
"+ OOOOOOOOOOoooOOOOOOOO  ++@@@@@",
"+ OO O OOOOooo....OOOOOO  ++@@@@",
"+ OOO OOOOOoo........OOOO  +++@@",
"+ OO O OOOoo...........OOO   +++",
"+ OOOOOOOooo.............OOO   +",
"+  OOOoooooo...............OOO +",
"++         oo.............O    +",
"@+++++++++                  ++++",
"@@@@@@@@@++++++++++++++++++++@@@"
};
