/* XPM */
static char *result[] = {
/* columns rows colors chars-per-pixel */
"32 32 7 1 ",
"  c #454412",
". c #676A35",
"X c #7E7B4A",
"o c #F8C53A",
"O c #FBD66A",
"+ c #FBE86A",
"@ c None",
/* pixels */
"@@@@@@@@@@@@@@@@@@@@@@@@@@@@@@@@",
"@@@@@@@@@@@@@@@@@@@@@@@@@@@@@@@@",
"@@@@@@@@@@@@@@@@@@@@@@@@@@@@@@@@",
"@@@@@@@@@@@@@@@@@@@@@@@@@@@@@@@@",
"@@@@@@@@@@@.@@@@@@@.@@@@@@@@@@@@",
"@@@@@@@@@@.+.@@@@@.+.@@@@@@@@@@@",
"@@@@@@@@@@.OO.....OO.@@@@@@@@@@@",
"@@@@@@@@@@.XoOOOOOoX.@@@@@@@@@@@",
"@@@@@@@@@@.oO+++++Oo.@@@@@@@@@@@",
"@@@@@@@@@..oOO+o++Oo..@@@@@@@@@@",
"@@@@@@@@@@ .OO+oOOo. @@@@@@@@@@@",
"@@@@@@@@@..OOO+o+Ooo..@@@@@@@@@@",
"@@@@@@@@@@ O+O+o+++O @@@@@@@@@@@",
"@@@@@@@@@.O++o+o++++O.@@@@@@@@@@",
"@@@@@@@@@.O++o+OO+++O.@@@@@@@@@@",
"@@@@@@@@@.OO+o+OO++Oo.@@@@@@@@@@",
"@@@@@@@@@.oO+oO+o++Oo.@@@@@@@@@@",
"@@@@@@@@@ oO+OO+o++Oo @@@@@@@@@@",
"@@@@@@@@@ oOOOoOo+OOo @@@@@@@@@@",
"@@@@@@@@@ XOOOoOoOOOX @@@@@@@@@@",
"@@@@@@@@@@.oOooooOOo.@@@@@@@@@@@",
"@@@@@@@@@@ oOoXXoOOo @@@@@@@@@@@",
"@@@@@@@@@@ XoX  XooX @@@@@@@@@@@",
"@@@@@@@@@@@ o @@ oo @@@@@@@@@@@@",
"@@@@@@@@@@@ + @@ ++ @@@@@@@@@@@@",
"@@@@@@@@@@@ O @@ OO @@@@@@@@@@@@",
"@@@@@@@@@@@@ .@@.  @@@@@@@@@@@@@",
"@@@@@@@@@@@@@@@@@@@@@@@@@@@@@@@@",
"@@@@@@@@@@@@@@@@@@@@@@@@@@@@@@@@",
"@@@@@@@@@@@@@@@@@@@@@@@@@@@@@@@@",
"@@@@@@@@@@@@@@@@@@@@@@@@@@@@@@@@",
"@@@@@@@@@@@@@@@@@@@@@@@@@@@@@@@@"
};
